REM MD5 18be2a3b942e5f4e607584b79716adb4
FILE "Tennis Arena (Japan).bin" BINARY
  TRACK 01 MODE2/2352
    INDEX 01 00:00:00
  TRACK 02 AUDIO
    INDEX 00 00:35:00
    INDEX 01 00:37:00
  TRACK 03 AUDIO
    INDEX 00 05:00:35
    INDEX 01 05:02:35
  TRACK 04 AUDIO
    INDEX 00 05:37:04
    INDEX 01 05:39:04
  TRACK 05 AUDIO
    INDEX 00 08:29:16
    INDEX 01 08:31:16
  TRACK 06 AUDIO
    INDEX 00 08:37:36
    INDEX 01 08:39:36
  TRACK 07 AUDIO
    INDEX 00 08:47:72
    INDEX 01 08:49:72
  TRACK 08 AUDIO
    INDEX 00 08:55:67
    INDEX 01 08:57:67
  TRACK 09 AUDIO
    INDEX 00 09:05:67
    INDEX 01 09:07:67
  TRACK 10 AUDIO
    INDEX 00 09:14:33
    INDEX 01 09:16:33
  TRACK 11 AUDIO
    INDEX 00 09:25:70
    INDEX 01 09:27:70
  TRACK 12 AUDIO
    INDEX 00 09:34:07
    INDEX 01 09:36:07
  TRACK 13 AUDIO
    INDEX 00 09:45:59
    INDEX 01 09:47:59
  TRACK 14 AUDIO
    INDEX 00 09:53:48
    INDEX 01 09:55:48
  TRACK 15 AUDIO
    INDEX 00 10:05:10
    INDEX 01 10:07:10
  TRACK 16 AUDIO
    INDEX 00 10:13:71
    INDEX 01 10:15:71
  TRACK 17 AUDIO
    INDEX 00 10:24:71
    INDEX 01 10:26:71
  TRACK 18 AUDIO
    INDEX 00 10:32:25
    INDEX 01 10:34:25
  TRACK 19 AUDIO
    INDEX 00 10:40:21
    INDEX 01 10:42:21
  TRACK 20 AUDIO
    INDEX 00 10:48:29
    INDEX 01 10:50:29
  TRACK 21 AUDIO
    INDEX 00 10:56:42
    INDEX 01 10:58:42
  TRACK 22 AUDIO
    INDEX 00 11:05:40
    INDEX 01 11:07:40
  TRACK 23 AUDIO
    INDEX 00 11:13:51
    INDEX 01 11:15:51
  TRACK 24 AUDIO
    INDEX 00 11:22:17
    INDEX 01 11:24:17
  TRACK 25 AUDIO
    INDEX 00 11:34:22
    INDEX 01 11:36:22
  TRACK 26 AUDIO
    INDEX 00 11:43:27
    INDEX 01 11:45:27
  TRACK 27 AUDIO
    INDEX 00 11:51:44
    INDEX 01 11:53:44
  TRACK 28 AUDIO
    INDEX 00 11:59:68
    INDEX 01 12:01:68
  TRACK 29 AUDIO
    INDEX 00 12:12:25
    INDEX 01 12:14:25
  TRACK 30 AUDIO
    INDEX 00 12:23:61
    INDEX 01 12:25:61
  TRACK 31 AUDIO
    INDEX 00 12:32:66
    INDEX 01 12:34:66
  TRACK 32 AUDIO
    INDEX 00 12:43:26
    INDEX 01 12:45:26
  TRACK 33 AUDIO
    INDEX 00 12:55:58
    INDEX 01 12:57:58
  TRACK 34 AUDIO
    INDEX 00 13:07:12
    INDEX 01 13:09:12
  TRACK 35 AUDIO
    INDEX 00 13:19:44
    INDEX 01 13:21:44
  TRACK 36 AUDIO
    INDEX 00 13:42:47
    INDEX 01 13:44:47
  TRACK 37 AUDIO
    INDEX 00 14:06:38
    INDEX 01 14:08:38
  TRACK 38 AUDIO
    INDEX 00 14:33:58
    INDEX 01 14:35:58
  TRACK 39 AUDIO
    INDEX 00 14:54:34
    INDEX 01 14:56:34
  TRACK 40 AUDIO
    INDEX 00 15:15:00
    INDEX 01 15:17:00
  TRACK 41 AUDIO
    INDEX 00 15:53:25
    INDEX 01 15:55:25
  TRACK 42 AUDIO
    INDEX 00 16:26:50
    INDEX 01 16:28:50
  TRACK 43 AUDIO
    INDEX 00 16:46:66
    INDEX 01 16:48:66
  TRACK 44 AUDIO
    INDEX 00 17:13:03
    INDEX 01 17:15:03
  TRACK 45 AUDIO
    INDEX 00 17:47:58
    INDEX 01 17:49:58
  TRACK 46 AUDIO
    INDEX 00 17:55:00
    INDEX 01 17:57:00
  TRACK 47 AUDIO
    INDEX 00 18:01:63
    INDEX 01 18:03:63
  TRACK 48 AUDIO
    INDEX 00 18:09:37
    INDEX 01 18:11:37
  TRACK 49 AUDIO
    INDEX 00 18:22:69
    INDEX 01 18:24:69
  TRACK 50 AUDIO
    INDEX 00 18:31:53
    INDEX 01 18:33:53
  TRACK 51 AUDIO
    INDEX 00 18:44:07
    INDEX 01 18:46:07
  TRACK 52 AUDIO
    INDEX 00 18:52:61
    INDEX 01 18:54:61
  TRACK 53 AUDIO
    INDEX 00 19:05:05
    INDEX 01 19:07:05
  TRACK 54 AUDIO
    INDEX 00 21:26:21
    INDEX 01 21:28:21
REM LEADOUT 24:38:30
